<svg xmlns="http://www.w3.org/2000/svg" height="511pt" version="1.1" viewBox="-9 1 511 511.9995" width="511pt">
<g id="surface1">
<path d="M 439.761719 216 L 439.761719 502 L 55.761719 502 L 55.761719 216 L 247.761719 55.664062 Z M 439.761719 216 " style=" stroke:none;fill-rule:nonzero;fill:rgb(78.823529%,95.294118%,100%);fill-opacity:1;" />
<path d="M 247.761719 78.332031 L 412.160156 216 L 480.003906 216 C 484.675781 216 486.792969 210.164062 483.214844 207.167969 L 247.761719 10 L 12.3125 207.164062 C 8.730469 210.164062 10.851562 216 15.523438 216 L 83.363281 216 Z M 247.761719 78.332031 " style=" stroke:none;fill-rule:nonzero;fill:rgb(100%,36.470588%,36.470588%);fill-opacity:1;" />
<path d="M 174.761719 270 L 320.761719 270 L 320.761719 502 L 174.761719 502 Z M 174.761719 270 " style=" stroke:none;fill-rule:nonzero;fill:rgb(100%,72.54902%,32.941176%);fill-opacity:1;" />
<path d="M 284.761719 184.90625 C 284.761719 205.34375 268.195312 221.90625 247.761719 221.90625 C 227.328125 221.90625 210.761719 205.34375 210.761719 184.90625 C 210.761719 164.472656 227.328125 147.90625 247.761719 147.90625 C 268.195312 147.90625 284.761719 164.472656 284.761719 184.90625 Z M 284.761719 184.90625 " style=" stroke:none;fill-rule:nonzero;fill:rgb(100%,100%,100%);fill-opacity:1;" />
<path d="M 83.761719 144.664062 L 83.761719 39.5 C 83.761719 34.253906 88.015625 30 93.261719 30 L 130.261719 30 C 135.507812 30 139.761719 34.253906 139.761719 39.5 L 139.761719 97.332031 " style=" stroke:none;fill-rule:nonzero;fill:rgb(30.196078%,72.941176%,96.470588%);fill-opacity:1;" />
<path d="M 214.761719 361.5 C 209.238281 361.5 204.761719 365.976562 204.761719 371.5 L 204.761719 400.5 C 204.761719 406.023438 209.238281 410.5 214.761719 410.5 C 220.285156 410.5 224.761719 406.023438 224.761719 400.5 L 224.761719 371.5 C 224.761719 365.976562 220.285156 361.5 214.761719 361.5 Z M 214.761719 361.5 " style=" stroke:none;fill-rule:nonzero;fill:rgb(0%,0%,0%);fill-opacity:1;" />
<path d="M 489.632812 199.5 L 254.183594 2.332031 C 250.46875 -0.777344 245.054688 -0.777344 241.339844 2.332031 L 149.761719 79.023438 L 149.761719 39.5 C 149.761719 28.746094 141.015625 20 130.261719 20 L 93.261719 20 C 82.507812 20 73.761719 28.746094 73.761719 39.5 L 73.761719 142.664062 L 5.890625 199.5 C 0.996094 203.597656 -0.757812 210.121094 1.421875 216.121094 C 3.605469 222.121094 9.136719 226 15.523438 226 L 45.761719 226 L 45.761719 502 C 45.761719 507.523438 50.238281 512 55.761719 512 L 439.761719 512 C 445.285156 512 449.761719 507.523438 449.761719 502 L 449.761719 393.667969 C 449.761719 388.144531 445.285156 383.667969 439.761719 383.667969 C 434.238281 383.667969 429.761719 388.144531 429.761719 393.667969 L 429.761719 492 L 330.761719 492 L 330.761719 270 C 330.761719 264.476562 326.285156 260 320.761719 260 L 174.761719 260 C 169.238281 260 164.761719 264.476562 164.761719 270 L 164.761719 492 L 65.761719 492 L 65.761719 226 L 83.363281 226 C 85.710938 226 87.984375 225.171875 89.785156 223.667969 L 247.761719 91.375 L 405.742188 223.667969 C 407.539062 225.171875 409.8125 226 412.160156 226 L 429.761719 226 L 429.761719 314.332031 C 429.761719 319.855469 434.238281 324.332031 439.761719 324.332031 C 445.285156 324.332031 449.761719 319.855469 449.761719 314.332031 L 449.761719 226 L 480.003906 226 C 486.386719 226 491.921875 222.121094 494.101562 216.121094 C 496.28125 210.121094 494.527344 203.597656 489.632812 199.5 Z M 184.761719 280 L 310.761719 280 L 310.761719 492 L 184.761719 492 Z M 93.761719 40 L 129.761719 40 L 129.761719 95.769531 L 93.761719 125.914062 Z M 415.792969 206 L 254.183594 70.664062 C 250.46875 67.554688 245.054688 67.554688 241.339844 70.664062 L 79.730469 206 L 29.28125 206 L 247.761719 23.042969 L 466.246094 206 Z M 415.792969 206 " style=" stroke:none;fill-rule:nonzero;fill:rgb(0%,0%,0%);fill-opacity:1;" />
<path d="M 200.761719 184.90625 C 200.761719 210.824219 221.847656 231.90625 247.761719 231.90625 C 273.679688 231.90625 294.761719 210.824219 294.761719 184.90625 C 294.761719 158.992188 273.679688 137.90625 247.761719 137.90625 C 221.847656 137.90625 200.761719 158.992188 200.761719 184.90625 Z M 274.761719 184.90625 C 274.761719 199.792969 262.652344 211.90625 247.761719 211.90625 C 232.875 211.90625 220.761719 199.792969 220.761719 184.90625 C 220.761719 170.019531 232.875 157.90625 247.761719 157.90625 C 262.652344 157.90625 274.761719 170.019531 274.761719 184.90625 Z M 274.761719 184.90625 " style=" stroke:none;fill-rule:nonzero;fill:rgb(0%,0%,0%);fill-opacity:1;" />
<path d="M 439.761719 347 C 437.132812 347 434.550781 348.070312 432.691406 349.929688 C 430.832031 351.789062 429.761719 354.371094 429.761719 357 C 429.761719 359.628906 430.832031 362.210938 432.691406 364.070312 C 434.550781 365.929688 437.132812 367 439.761719 367 C 442.394531 367 444.972656 365.929688 446.832031 364.070312 C 448.691406 362.210938 449.761719 359.628906 449.761719 357 C 449.761719 354.371094 448.691406 351.789062 446.832031 349.929688 C 444.972656 348.070312 442.394531 347 439.761719 347 Z M 439.761719 347 " style=" stroke:none;fill-rule:nonzero;fill:rgb(0%,0%,0%);fill-opacity:1;" />
</g>
</svg>